<svg width="160" height="145" viewBox="0 0 160 145" fill="none" xmlns="http://www.w3.org/2000/svg">
<path d="M137.203 112.715L30.4185 132.298C25.4598 133.207 20.6164 129.797 19.6914 124.754L0.115362 17.9906C-0.647744 13.8325 2.45763 10.0886 6.98643 9.64629L105.259 0.0342619C109.183 -0.348849 113.273 2.42637 114.376 6.22632L142.477 103.029C143.794 107.567 141.436 111.937 137.207 112.712L137.203 112.715Z" fill="#3868B7"/>
<path d="M93.7533 57.7251L144.719 130.824C149.429 137.577 148.024 144.227 141.789 144.729L138.898 144.962C134.03 145.351 127.803 141.798 124.128 136.527L67.8046 55.7597C64.1292 50.4896 57.9029 46.9326 53.0346 47.325L35.8445 48.7049C30.9731 49.0973 24.7436 45.5341 21.0683 40.2609C16.365 33.5113 17.7698 26.8644 24.0054 26.363L94.9681 20.6662C99.8395 20.2737 106.069 23.8369 109.744 29.1102C114.448 35.8598 113.043 42.5066 106.807 43.008L96.6843 43.821C90.4455 44.3224 89.0439 50.9724 93.7533 57.7251Z" fill="black"/>
<path d="M93.7904 57.7033L144.725 130.824C149.432 137.58 148.024 144.227 141.788 144.725L138.898 144.956C134.029 145.345 127.803 141.785 124.131 136.515L67.8417 55.7286C64.1695 50.4584 57.9431 46.8983 53.0748 47.2877L35.8847 48.6613C31.0133 49.0506 24.7838 45.4874 21.1116 40.211C16.4115 33.4583 17.8193 26.8146 24.055 26.3163L95.0207 20.6506C99.8922 20.2612 106.122 23.8245 109.794 29.1008C114.494 35.8535 113.086 42.4972 106.85 42.9956L96.7276 43.8054C90.4888 44.3038 89.0841 50.9537 93.7904 57.7064V57.7033Z" fill="black"/>
<path d="M93.8281 57.6846L144.729 130.828C149.432 137.583 148.021 144.233 141.785 144.729L138.892 144.959C134.024 145.345 127.8 141.785 124.131 136.512L67.8794 55.6974C64.2103 50.4242 57.9839 46.8641 53.1188 47.2503L35.9286 48.6145C31.0572 49.0008 24.8309 45.4344 21.1617 40.1581C16.4647 33.4023 17.8757 26.7586 24.1114 26.2633L95.0803 20.6288C99.9517 20.2426 106.178 23.8089 109.847 29.0853C114.544 35.8411 113.133 42.4848 106.897 42.98L96.7747 43.7836C90.5359 44.2789 89.128 50.9288 93.8312 57.6846H93.8281Z" fill="black"/>
<path d="M93.8621 57.6628L144.732 130.828C149.432 137.586 148.021 144.233 141.782 144.725L138.888 144.953C134.02 145.336 127.797 141.773 124.131 136.499L67.9165 55.6663C64.2474 50.393 58.0273 46.8267 53.159 47.2129L35.9688 48.5709C31.0974 48.954 24.8711 45.3877 21.2051 40.1082C16.5112 33.3524 17.9253 26.7087 24.1609 26.2166L95.1298 20.6132C100.001 20.2301 106.228 23.7965 109.894 29.0759C114.587 35.8317 113.173 42.4754 106.938 42.9676L96.8149 43.768C90.5761 44.2602 89.1651 50.9101 93.8652 57.6659L93.8621 57.6628Z" fill="black"/>
<path d="M93.8994 57.6441L144.735 130.831C149.432 137.593 148.018 144.24 141.779 144.729L138.885 144.956C134.017 145.339 127.797 141.77 124.131 136.496L67.9538 55.6351C64.2878 50.3588 58.0677 46.7924 53.1994 47.1755L36.0061 48.5242C31.1347 48.9073 24.9115 45.3347 21.2455 40.0553C16.5547 33.2964 17.9719 26.6527 24.2076 26.1636L95.1795 20.5914C100.051 20.2083 106.274 23.7809 109.94 29.0603C114.631 35.8193 113.214 42.463 106.978 42.952L96.8553 43.7462C90.6165 44.2352 89.2024 50.8821 93.8994 57.6441Z" fill="black"/>
<path d="M93.9373 57.6254L144.738 130.834C149.432 137.596 148.015 144.243 141.776 144.732L138.883 144.956C134.014 145.336 127.794 141.766 124.131 136.49L67.9917 55.604C64.3288 50.3276 58.1087 46.7582 53.2404 47.1382L36.0471 48.4806C31.1757 48.8606 24.9525 45.288 21.2927 40.0055C16.605 33.2434 18.0254 26.6028 24.261 26.1169L95.233 20.5758C100.104 20.1958 106.328 23.7684 109.987 29.051C114.675 35.813 113.255 42.4536 107.019 42.9395L96.8963 43.7307C90.6575 44.2166 89.2403 50.8634 93.9342 57.6285L93.9373 57.6254Z" fill="black"/>
<path d="M93.9749 57.6036L144.745 130.834C149.436 137.599 148.015 144.246 141.777 144.729L138.883 144.953C134.015 145.33 127.798 141.757 124.138 136.478L68.0324 55.5697C64.3726 50.2902 58.1557 46.7177 53.2873 47.0945L36.0941 48.4276C31.2227 48.8045 25.0026 45.2288 21.3428 39.9463C16.6582 33.1842 18.0786 26.5405 24.3173 26.0577L95.2924 20.5509C100.164 20.174 106.384 23.7497 110.044 29.0323C114.728 35.7943 113.308 42.438 107.069 42.9208L96.9464 43.7057C90.7076 44.1885 89.2873 50.8353 93.978 57.6005L93.9749 57.6036Z" fill="black"/>
<path d="M94.0089 57.5849L144.745 130.837C149.432 137.605 148.009 144.249 141.77 144.732L138.876 144.956C134.008 145.333 127.791 141.757 124.134 136.475L68.0695 55.5386C64.4128 50.2591 58.1959 46.6834 53.3276 47.0572L36.1343 48.384C31.2629 48.7609 25.0428 45.179 21.3861 39.8964C16.7047 33.1313 18.1281 26.4907 24.3669 26.0079L95.3451 20.5322C100.217 20.1553 106.437 23.7373 110.093 29.0198C114.775 35.785 113.351 42.4256 107.113 42.9084L96.9897 43.6902C90.7509 44.1729 89.3275 50.8166 94.0151 57.5849H94.0089Z" fill="black"/>
<path d="M94.046 57.5631L144.747 130.837C149.432 137.605 148.005 144.249 141.767 144.729L138.873 144.95C134.005 145.323 127.791 141.745 124.134 136.462L68.1066 55.5074C64.45 50.2249 58.2361 46.646 53.3678 47.0198L36.1745 48.3373C31.3031 48.7111 25.0861 45.1292 21.4295 39.8435C16.7511 33.0752 18.1777 26.4377 24.4165 25.9581L95.3947 20.5135C100.266 20.1398 106.483 23.7217 110.14 29.0074C114.818 35.7757 113.392 42.4131 107.153 42.8928L97.0268 43.6684C90.788 44.148 89.3615 50.7917 94.046 57.56V57.5631Z" fill="black"/>
<path d="M94.0839 57.5444L144.754 130.84C149.436 137.611 148.006 144.255 141.767 144.732L138.874 144.953C134.005 145.323 127.791 141.745 124.138 136.459L68.1445 55.4763C64.491 50.1937 58.2802 46.6118 53.4088 46.9824L36.2155 48.2937C31.3441 48.6644 25.1271 45.0793 21.4767 39.7937C16.8015 33.0254 18.2312 26.3848 24.4699 25.9082L95.4513 20.4949C100.323 20.1242 106.54 23.7092 110.19 28.9949C114.865 35.7632 113.436 42.4038 107.197 42.8803L97.0709 43.6528C90.8322 44.1293 89.4025 50.773 94.0839 57.5444Z" fill="black"/>
<path d="M94.1208 57.5226L144.757 130.84C149.435 137.611 148.002 144.255 141.764 144.729L138.87 144.947C134.002 145.317 127.791 141.732 124.14 136.447L68.1814 55.4451C64.531 50.1594 58.3203 46.5775 53.4519 46.9451L36.2587 48.2501C31.3873 48.6208 25.1734 45.0326 21.523 39.7438C16.8509 32.9724 18.2837 26.335 24.5224 25.8615L95.5038 20.4793C100.375 20.1086 106.589 23.6968 110.239 28.9856C114.912 35.757 113.479 42.3944 107.24 42.8679L97.1141 43.6341C90.8753 44.1075 89.4425 50.7512 94.1208 57.5226Z" fill="black"/>
<path d="M94.155 57.5039L144.76 130.843C149.435 137.618 147.999 144.261 141.76 144.732L138.867 144.95C133.999 145.317 127.788 141.729 124.14 136.443L68.2188 55.414C64.5714 50.1283 58.3607 46.5401 53.4924 46.9077L36.296 48.2034C31.4246 48.5709 25.2107 44.9797 21.5634 39.6878C16.8944 32.9132 18.3303 26.2758 24.5691 25.8055L95.5535 20.4544C100.425 20.0868 106.639 23.6781 110.286 28.97C114.955 35.7445 113.519 42.382 107.28 42.8523L97.1545 43.6154C90.9157 44.0857 89.4798 50.7294 94.155 57.5039Z" fill="black"/>
<path d="M94.1921 57.4853L144.763 130.846C149.435 137.624 147.996 144.264 141.757 144.732L138.863 144.95C133.995 145.314 127.787 141.726 124.14 136.437L68.2559 55.3828C64.6085 50.094 58.4009 46.5059 53.5326 46.8703L36.3362 48.1598C31.4648 48.5242 25.2541 44.9329 21.6067 39.6379C16.9409 32.8634 18.3799 26.2259 24.6187 25.7587L95.6062 20.4419C100.478 20.0775 106.688 23.6688 110.336 28.9638C115.002 35.7383 113.563 42.3758 107.324 42.843L97.1978 43.603C90.959 44.0702 89.5201 50.7139 94.1921 57.4884V57.4853Z" fill="black"/>
<path d="M94.23 57.4635L144.766 130.846C149.435 137.624 147.993 144.268 141.754 144.732L138.861 144.947C133.993 145.308 127.785 141.717 124.141 136.428L68.2938 55.3517C64.6496 50.0629 58.445 46.4685 53.5736 46.8329L36.3772 48.1131C31.5058 48.4744 25.2951 44.88 21.654 39.585C16.9912 32.8073 18.4334 26.1699 24.6721 25.7058L95.6597 20.4201C100.531 20.0588 106.742 23.6532 110.383 28.9482C115.046 35.7258 113.604 42.3633 107.365 42.8274L97.2389 43.5811C91.0001 44.0452 89.558 50.6858 94.2269 57.4666L94.23 57.4635Z" fill="black"/>
<path d="M94.2639 57.4448L144.769 130.849C149.435 137.63 147.99 144.271 141.751 144.732L138.857 144.947C133.989 145.308 127.784 141.714 124.143 136.422L68.3307 55.3174C64.6896 50.0255 58.4851 46.4311 53.6168 46.7924L36.4204 48.0664C31.549 48.4277 25.3414 44.827 21.7002 39.532C17.0406 32.7513 18.4859 26.1169 24.7246 25.6559L95.7153 20.4014C100.587 20.0401 106.794 23.6407 110.435 28.9357C115.095 35.7165 113.65 42.3508 107.411 42.8118L97.2851 43.5625C91.0464 44.0234 89.6011 50.664 94.267 57.4448H94.2639Z" fill="black"/>
<path d="M94.3012 57.423L144.772 130.849C149.435 137.633 147.986 144.274 141.748 144.732L138.854 144.943C133.986 145.302 127.781 141.704 124.143 136.412L68.368 55.2863C64.73 49.9944 58.5255 46.3969 53.6572 46.7551L36.4608 48.0196C31.5894 48.3778 25.3818 44.7772 21.7438 39.4791C17.0873 32.6983 18.5356 26.064 24.7713 25.603L95.762 20.3796C100.633 20.0214 106.841 23.622 110.479 28.9202C115.136 35.7009 113.687 42.3353 107.452 42.7962L97.3256 43.5407C91.0868 43.9985 89.6384 50.6391 94.3012 57.423Z" fill="black"/>
<path d="M94.3393 57.4043L144.776 130.852C149.436 137.636 147.984 144.277 141.745 144.732L138.852 144.943C133.983 145.299 127.782 141.701 124.144 136.406L68.4061 55.2551C64.7681 49.9601 58.5698 46.3595 53.6984 46.7177L36.502 47.976C31.6306 48.3311 25.4261 44.7274 21.7881 39.4292C17.1347 32.6454 18.5862 26.011 24.8219 25.5563L95.8156 20.364C100.687 20.009 106.892 23.6127 110.53 28.9108C115.183 35.6947 113.731 42.329 107.496 42.7838L97.3699 43.5251C91.128 43.9829 89.6796 50.6204 94.3393 57.4043Z" fill="black"/>
<path d="M94.3762 57.3856L144.782 130.859C149.438 137.646 147.987 144.283 141.745 144.738L138.851 144.95C133.98 145.305 127.782 141.701 124.147 136.406L68.4431 55.224C64.8082 49.9289 58.6099 46.3252 53.7385 46.6803L36.5421 47.9293C31.6707 48.2844 25.4662 44.6775 21.8344 39.3763C17.1841 32.5893 18.6387 25.9581 24.8744 25.5033L95.8682 20.3422C100.74 19.9871 106.944 23.594 110.576 28.8952C115.226 35.6822 113.772 42.3135 107.536 42.7682L97.4099 43.5033C91.168 43.958 89.7166 50.5955 94.3731 57.3825L94.3762 57.3856Z" fill="black"/>
<path d="M94.411 57.3638L144.782 130.859C149.436 137.649 147.981 144.286 141.739 144.738L138.846 144.947C133.974 145.299 127.779 141.692 124.147 136.394L68.4841 55.1928C64.8523 49.8947 58.654 46.291 53.7857 46.6398L36.5862 47.8826C31.7148 48.2345 25.5103 44.6246 21.8817 39.3233C17.2345 32.5364 18.6922 25.902 24.9279 25.4535L95.9248 20.3267C100.796 19.9747 107.001 23.5847 110.629 28.8859C115.277 35.6729 113.819 42.3072 107.583 42.7558L97.4572 43.4877C91.2153 43.9393 89.7607 50.5768 94.4141 57.3669L94.411 57.3638Z" fill="black"/>
<path d="M94.4481 57.3451L144.788 130.862C149.438 137.652 147.981 144.289 141.739 144.738L138.845 144.947C133.974 145.295 127.779 141.689 124.15 136.387L68.5212 55.1617C64.8926 49.8635 58.6943 46.2536 53.826 46.6024L36.6265 47.8359C31.7519 48.1847 25.5537 44.5716 21.925 39.2704C17.281 32.4803 18.7418 25.8491 24.9774 25.4005L95.9775 20.3049C100.852 19.956 107.05 23.5691 110.679 28.8703C115.323 35.6604 113.862 42.2917 107.626 42.7402L97.5005 43.4659C91.2587 43.9144 89.801 50.5519 94.4512 57.342L94.4481 57.3451Z" fill="black"/>
<path d="M94.4852 57.3233L144.791 130.862C149.438 137.655 147.977 144.292 141.735 144.738L138.842 144.943C133.97 145.292 127.778 141.679 124.15 136.378L68.5583 55.1305C64.9327 49.8293 58.7375 46.2193 53.8661 46.5651L36.6666 47.7923C31.7921 48.1411 25.5938 44.5249 21.9683 39.2205C17.3273 32.4305 18.7882 25.7961 25.0269 25.3538L96.027 20.2893C100.901 19.9404 107.1 23.5566 110.725 28.861C115.366 35.6511 113.905 42.2854 107.667 42.7277L97.5376 43.4503C91.2957 43.8957 89.8349 50.5332 94.4821 57.3264L94.4852 57.3233Z" fill="black"/>
<path d="M94.52 57.3046L144.792 130.865C149.436 137.661 147.972 144.296 141.73 144.738L138.836 144.943C133.965 145.289 127.773 141.676 124.147 136.372L68.5962 55.0994C64.9706 49.7981 58.7786 46.1819 53.9072 46.5277L36.7077 47.7455C31.8331 48.0913 25.638 44.472 22.0155 39.1676C17.3777 32.3744 18.8416 25.7432 25.0804 25.3009L96.0836 20.2675C100.958 19.9217 107.153 23.541 110.776 28.8454C115.414 35.6386 113.95 42.2699 107.711 42.7121L97.5817 43.4316C91.3398 43.8739 89.8759 50.5083 94.52 57.3046Z" fill="black"/>
<path d="M94.5569 57.2859L144.797 130.868C149.438 137.664 147.971 144.302 141.729 144.741L138.836 144.943C133.964 145.286 127.775 141.67 124.153 136.366L68.6331 55.0682C65.0107 49.7639 58.8186 46.1477 53.9503 46.4903L36.7508 47.7019C31.8763 48.0445 25.6811 44.4252 22.0618 39.1178C17.4271 32.3214 18.8942 25.6933 25.1329 25.251L96.1361 20.2488C101.011 19.9062 107.206 23.5255 110.825 28.833C115.46 35.6293 113.993 42.2574 107.754 42.6997L97.6249 43.413C91.383 43.8521 89.916 50.4865 94.5569 57.2859Z" fill="black"/>
<path d="M94.5941 57.2641L144.8 130.868C149.438 137.667 147.968 144.302 141.726 144.738L138.832 144.94C133.961 145.28 127.772 141.661 124.153 136.356L68.6702 55.034C65.0509 49.7296 58.862 46.1103 53.9906 46.4498L36.7911 47.6552C31.9166 47.9978 25.7245 44.3723 22.1052 39.0617C17.4736 32.2654 18.9438 25.6341 25.1825 25.1981L96.1888 20.227C101.063 19.8844 107.255 23.5099 110.875 28.8205C115.506 35.6168 114.036 42.2481 107.797 42.6841L97.6683 43.3943C91.4264 43.8303 89.9562 50.4647 94.5941 57.2641Z" fill="black"/>
<path d="M94.6322 57.2454L144.807 130.871C149.442 137.674 147.969 144.305 141.727 144.741L138.833 144.943C133.962 145.283 127.776 141.661 124.157 136.353L68.7084 55.0028C65.0922 49.6953 58.9032 46.0729 54.0318 46.4124L36.8323 47.6085C31.9578 47.948 25.7657 44.3225 22.1495 39.0087C17.5211 32.2093 18.9943 25.5812 25.2331 25.1451L96.2425 20.2083C101.117 19.8688 107.309 23.4943 110.925 28.808C115.554 35.6075 114.08 42.2356 107.842 42.6717L97.7126 43.3756C91.4707 43.8085 89.9975 50.4429 94.6322 57.2454Z" fill="black"/>
<path d="M94.6662 57.2236L144.807 130.871C149.439 137.674 147.962 144.308 141.72 144.738L138.827 144.937C133.955 145.274 127.769 141.648 124.153 136.341L68.7455 54.9717C65.1293 49.6642 58.9435 46.0387 54.072 46.3751L36.8695 47.5649C31.9949 47.9013 25.806 44.2726 22.1929 38.9589C17.5675 32.1564 19.0439 25.5282 25.2827 25.0984L96.2921 20.1927C101.167 19.8563 107.356 23.485 110.969 28.7987C115.594 35.6012 114.118 42.2294 107.879 42.6592L97.7497 43.36C91.5078 43.7898 90.0315 50.4242 94.6631 57.2267L94.6662 57.2236Z" fill="black"/>
<path d="M94.7031 57.2049L144.81 130.874C149.438 137.68 147.959 144.311 141.717 144.741L138.823 144.94C133.952 145.274 127.769 141.648 124.156 136.337L68.7824 54.9405C65.1694 49.6299 58.9867 46.0013 54.1152 46.3377L36.9126 47.5181C32.0381 47.8514 25.8492 44.2197 22.2392 38.906C17.617 32.1034 19.0964 25.4753 25.3352 25.0455L96.3477 20.1709C101.222 19.8376 107.411 23.4694 111.021 28.7831C115.643 35.5857 114.164 42.2138 107.925 42.6436L97.7961 43.3382C91.5542 43.768 90.0747 50.3993 94.7031 57.2049Z" fill="black"/>
<path d="M94.7403 57.1831L144.816 130.874C149.441 137.683 147.958 144.314 141.716 144.738L138.823 144.934C133.951 145.267 127.769 141.636 124.159 136.325L68.8196 54.9094C65.2096 49.5988 59.0269 45.967 54.1555 46.3003L36.9529 47.4746C32.0784 47.8078 25.8925 44.1729 22.2826 38.8561C17.6634 32.0505 19.146 25.4223 25.3848 24.9987L96.3973 20.1554C101.272 19.8221 107.458 23.457 111.068 28.7738C115.687 35.5794 114.204 42.2076 107.965 42.6312L97.8363 43.3226C91.5944 43.7493 90.1118 50.3806 94.7372 57.1862L94.7403 57.1831Z" fill="black"/>
<path d="M94.7784 57.1644L144.819 130.877C149.442 137.686 147.956 144.317 141.714 144.741L138.821 144.937C133.949 145.267 127.769 141.636 124.16 136.322L68.8577 54.8782C65.2509 49.5645 59.0681 45.9328 54.1967 46.2629L36.9941 47.4278C32.1196 47.758 25.9338 44.12 22.3269 38.8032C17.7109 31.9944 19.1966 25.3694 25.4354 24.9458L96.451 20.1335C101.326 19.8034 107.511 23.4414 111.118 28.7582C115.734 35.567 114.248 42.192 108.01 42.6156L97.8807 43.3008C91.6388 43.7244 90.153 50.3557 94.7753 57.1644H94.7784Z" fill="black"/>
<path d="M94.8124 57.1458L144.819 130.881C149.438 137.692 147.95 144.324 141.708 144.741L138.814 144.937C133.943 145.264 127.763 141.629 124.156 136.316L68.898 54.8471C65.2911 49.5303 59.1115 45.8954 54.2401 46.2256L37.0375 47.3842C32.163 47.7113 25.9802 44.0733 22.3765 38.7533C17.7605 31.9446 19.2525 25.3196 25.4912 24.8991L96.5068 20.118C101.381 19.7909 107.564 23.4289 111.168 28.7489C115.784 35.5576 114.292 42.1826 108.053 42.6031L97.924 43.2853C91.6821 43.7057 90.1933 50.337 94.8124 57.1458Z" fill="black"/>
<path d="M94.8494 57.1239L144.825 130.881C149.441 137.696 147.952 144.324 141.707 144.741L138.814 144.934C133.942 145.261 127.763 141.62 124.162 136.303L68.9349 54.8159C65.3312 49.4991 59.1547 45.8611 54.2833 46.1851L37.0807 47.3344C32.2062 47.6614 26.0234 44.0172 22.4228 38.6973C17.8099 31.8854 19.305 25.2604 25.5438 24.843L96.5625 20.0962C101.437 19.7691 107.62 23.4133 111.22 28.7333C115.833 35.5452 114.338 42.1702 108.099 42.5876L97.9703 43.2634C91.7284 43.6808 90.2365 50.3089 94.8525 57.1239H94.8494Z" fill="black"/>
<path d="M94.8875 57.1053L144.829 130.884C149.442 137.699 147.95 144.327 141.705 144.741L138.811 144.934C133.94 145.258 127.763 141.617 124.163 136.297L68.973 54.7817C65.3724 49.4617 59.1959 45.8206 54.3245 46.1446L37.1219 47.2877C32.2474 47.6116 26.0678 43.9674 22.4672 38.6443C17.8574 31.8293 19.3556 25.2074 25.5944 24.7932L96.6162 20.0775C101.491 19.7535 107.67 23.3978 111.271 28.7208C115.881 35.5358 114.383 42.1577 108.144 42.572L98.0147 43.2448C91.7728 43.659 90.2777 50.2871 94.8906 57.1021L94.8875 57.1053Z" fill="black"/>
<path d="M94.9217 57.0835L144.832 130.884C149.442 137.702 147.947 144.33 141.702 144.741L138.808 144.931C133.937 145.252 127.76 141.608 124.163 136.288L69.0104 54.7505C65.4129 49.4306 59.2364 45.7864 54.365 46.1072L37.1593 47.2409C32.2847 47.5618 26.1051 43.9144 22.5076 38.5914C17.901 31.7764 19.4023 25.1514 25.641 24.7402L96.6629 20.0557C101.537 19.7349 107.717 23.3822 111.314 28.7053C115.921 35.5203 114.42 42.1453 108.181 42.5564L98.0489 43.2261C91.807 43.6372 90.3088 50.2653 94.9186 57.0835H94.9217Z" fill="black"/>
<path d="M94.9586 57.0648L144.835 130.887C149.441 137.705 147.943 144.333 141.698 144.744L138.804 144.934C133.933 145.252 127.76 141.608 124.162 136.285L69.0472 54.7194C65.4497 49.3963 59.2795 45.7521 54.405 46.0698L37.1992 47.1973C32.3247 47.5182 26.1482 43.8646 22.5538 38.5415C17.9503 31.7234 19.4516 25.1015 25.6935 24.6935L96.7184 20.0401C101.593 19.7193 107.769 23.3728 111.364 28.6959C115.967 35.514 114.466 42.1359 108.224 42.5439L98.092 43.2074C91.8501 43.6154 90.3488 50.2435 94.9555 57.0648H94.9586Z" fill="black"/>
<path d="M94.9965 57.0461L144.838 130.89C149.442 137.711 147.941 144.339 141.696 144.744L138.802 144.931C133.931 145.249 127.757 141.598 124.166 136.275L69.0852 54.6882C65.4908 49.3652 59.3205 45.7147 54.4491 46.0324L37.2434 47.1506C32.3689 47.4683 26.1924 43.8148 22.6011 38.4855C18.0007 31.6642 19.5051 25.0423 25.747 24.6374L96.7719 20.0152C101.646 19.6975 107.823 23.351 111.414 28.6803C116.015 35.5016 114.51 42.1235 108.268 42.5284L98.1362 43.1887C91.8943 43.5936 90.3899 50.2217 94.9934 57.043L94.9965 57.0461Z" fill="black"/>
<path d="M95.0337 57.0243L144.844 130.893C149.445 137.717 147.94 144.342 141.695 144.747L138.802 144.934C133.93 145.249 127.76 141.598 124.169 136.272L69.1223 54.6571C65.5311 49.3309 59.3608 45.6805 54.4894 45.9951L37.2837 47.107C32.4092 47.4216 26.2358 43.7649 22.6445 38.4356C18.0472 31.6144 19.5547 24.9925 25.7966 24.5876L96.8247 19.9965C101.699 19.6819 107.873 23.3386 111.464 28.6679C116.061 35.4891 114.554 42.111 108.312 42.5159L98.1796 43.17C91.9345 43.5749 90.4301 50.1999 95.0306 57.0243H95.0337Z" fill="black"/>
<path d="M95.0677 57.0056L144.844 130.896C149.441 137.72 147.934 144.349 141.689 144.747L138.795 144.934C133.924 145.246 127.754 141.592 124.165 136.266L69.1595 54.6259C65.5713 49.2998 59.4011 45.6462 54.5297 45.9577L37.324 47.0603C32.4494 47.3718 26.2761 43.7151 22.6879 38.3827C18.0937 31.5583 19.6043 24.9396 25.8462 24.5378L96.8774 19.9809C101.752 19.6695 107.925 23.3261 111.513 28.6585C116.108 35.4829 114.597 42.1017 108.355 42.5035L98.223 43.1544C91.9779 43.5562 90.4704 50.1812 95.0677 57.0056Z" fill="black"/>
<path d="M95.1047 56.9838L144.847 130.896C149.441 137.724 147.93 144.349 141.685 144.747L138.792 144.931C133.92 145.242 127.753 141.583 124.165 136.257L69.1965 54.5948C65.6114 49.2655 59.4443 45.6088 54.5698 45.9203L37.364 47.0167C32.4895 47.3282 26.3193 43.6653 22.7342 38.3329C18.1431 31.5054 19.6569 24.8866 25.8988 24.4879L96.9299 19.9622C101.804 19.6508 107.975 23.3137 111.56 28.6461C116.151 35.4735 114.637 42.0923 108.395 42.491L98.263 43.1357C92.018 43.5344 90.5074 50.1594 95.1016 56.9869L95.1047 56.9838Z" fill="black"/>
<path d="M95.1427 56.9651L144.854 130.899C149.445 137.73 147.931 144.352 141.686 144.747L138.792 144.931C133.921 145.239 127.754 141.58 124.172 136.25L69.2344 54.5636C65.6494 49.2344 59.4854 45.5746 54.6139 45.8829L37.4082 46.9731C32.5337 47.2814 26.3634 43.6154 22.7815 38.283C18.1935 31.4555 19.7104 24.8368 25.9523 24.4412L96.9866 19.9467C101.861 19.6383 108.031 23.3043 111.613 28.6367C116.201 35.4642 114.684 42.083 108.443 42.4785L98.3103 43.1202C92.0653 43.5157 90.5516 50.1407 95.1427 56.9682V56.9651Z" fill="black"/>
<path d="M95.1769 56.9464L144.854 130.902C149.442 137.733 147.925 144.358 141.68 144.75L138.786 144.931C133.915 145.236 127.751 141.573 124.169 136.244L69.2718 54.5294C65.6898 49.197 59.5258 45.5341 54.6544 45.8424L37.4456 46.9232C32.571 47.2285 26.4039 43.5625 22.822 38.2269C18.2371 31.3964 19.7571 24.7776 25.999 24.3851L97.0333 19.9217C101.908 19.6165 108.075 23.2825 111.657 28.618C116.242 35.4486 114.722 42.0674 108.48 42.4598L98.3477 43.0952C92.1027 43.4877 90.5858 50.1096 95.1738 56.9433L95.1769 56.9464Z" fill="black"/>
<path d="M95.2141 56.9246L144.86 130.902C149.444 137.736 147.924 144.358 141.679 144.747L138.786 144.928C133.914 145.233 127.75 141.567 124.172 136.235L69.3089 54.4982C65.7301 49.1658 59.5692 45.4998 54.6947 45.8051L37.4859 46.8796C32.6113 47.1849 26.4442 43.5126 22.8654 38.1771C18.2836 31.3465 19.8067 24.7278 26.0486 24.3384L97.086 19.9062C101.961 19.6009 108.128 23.2732 111.707 28.6087C116.288 35.4393 114.765 42.0581 108.523 42.4474L98.3911 43.0797C92.1461 43.469 90.6261 50.0909 95.2109 56.9246H95.2141Z" fill="black"/>
<path d="M95.2518 56.9059L144.863 130.905C149.445 137.742 147.922 144.364 141.677 144.75L138.783 144.931C133.909 145.233 127.751 141.564 124.172 136.228L69.3498 54.4671C65.7741 49.1316 59.6132 45.4655 54.7387 45.7646L37.5299 46.8298C32.6553 47.1319 26.4913 43.4597 22.9156 38.121C18.337 31.2873 19.8632 24.6686 26.1051 24.2823L97.1456 19.8812C102.02 19.5791 108.184 23.2514 111.76 28.59C116.338 35.4237 114.812 42.0425 108.57 42.4287L98.4382 43.0548C92.1932 43.441 90.6701 50.0629 95.2518 56.8997V56.9059Z" fill="black"/>
<path d="M95.2888 56.8841L144.866 130.905C149.444 137.742 147.918 144.364 141.676 144.747L138.783 144.925C133.908 145.224 127.75 141.555 124.178 136.216L69.3868 54.4359C65.8111 49.1004 59.6533 45.4282 54.7819 45.7272L37.5731 46.7862C32.6985 47.0852 26.5345 43.4098 22.9619 38.0712C18.3864 31.2344 19.9157 24.6187 26.1576 24.2356L97.1981 19.8688C102.073 19.5698 108.237 23.2451 111.809 28.5838C116.385 35.4206 114.855 42.0362 108.614 42.4194L98.4814 43.0423C92.2364 43.4254 90.7102 50.0473 95.2919 56.8841H95.2888Z" fill="black"/>
<path d="M95.3229 56.8654L144.869 130.909C149.444 137.748 147.915 144.37 141.673 144.75L138.779 144.928C133.905 145.227 127.75 141.552 124.178 136.213L69.424 54.4048C65.8514 49.0662 59.6967 45.3939 54.8222 45.6898L37.6133 46.7395C32.7388 47.0385 26.5779 43.36 23.0053 38.0183C18.4329 31.1814 19.9654 24.5658 26.2072 24.1827L97.2509 19.847C102.125 19.548 108.286 23.2265 111.859 28.5682C116.431 35.405 114.899 42.0207 108.657 42.4038L98.5248 43.0236C92.2798 43.4036 90.7504 50.0255 95.3291 56.8654H95.3229Z" fill="black"/>
<path d="M95.361 56.8436L144.873 130.909C149.445 137.752 147.916 144.37 141.671 144.747L138.774 144.922C133.899 145.218 127.745 141.539 124.175 136.2L69.4621 54.3737C65.8926 49.035 59.738 45.3565 54.8634 45.6524L37.6546 46.6959C32.777 46.9918 26.6192 43.3102 23.0497 37.9684C18.4804 31.1285 20.016 24.5128 26.2579 24.136L97.3015 19.8314C102.179 19.5355 108.337 23.2171 111.906 28.5589C116.476 35.3988 114.94 42.0145 108.698 42.3913L98.5629 43.0049C92.3179 43.3818 90.7855 50.0037 95.361 56.8436Z" fill="black"/>
<path d="M95.398 56.8249L144.878 130.912C149.448 137.755 147.915 144.373 141.67 144.75L138.774 144.925C133.899 145.218 127.747 141.539 124.178 136.197L69.4991 54.3425C65.9328 49.0008 59.7781 45.3223 54.9035 45.6151L37.6947 46.6492C32.8171 46.9419 26.6624 43.2572 23.096 37.9155C18.5298 31.0724 20.0685 24.4599 26.3104 24.083L97.3572 19.8096C102.235 19.5168 108.389 23.2015 111.956 28.5433C116.522 35.3863 114.983 41.9989 108.741 42.3758L98.6061 42.9862C92.3611 43.3631 90.8256 49.9819 95.398 56.8249Z" fill="black"/>
<path d="M95.4352 56.8063L144.881 130.915C149.448 137.761 147.912 144.38 141.667 144.753L138.77 144.925C133.896 145.214 127.744 141.533 124.181 136.191L69.5363 54.3114C65.9699 48.9696 59.8184 45.288 54.9469 45.5777L37.735 46.6055C32.8574 46.8952 26.7027 43.2105 23.1394 37.8625C18.5764 31.0195 20.1182 24.4038 26.36 24.0332L97.4068 19.7909C102.284 19.5013 108.439 23.186 112.002 28.5339C116.565 35.377 115.024 41.9926 108.782 42.3633L98.6464 42.9676C92.4014 43.3413 90.8628 49.9601 95.4321 56.8063H95.4352Z" fill="black"/>
<path d="M95.4691 56.7844L144.881 130.915C149.444 137.764 147.905 144.38 141.66 144.75L138.764 144.922C133.889 145.211 127.741 141.527 124.177 136.182L69.5734 54.2802C66.0101 48.9354 59.8617 45.2506 54.9871 45.5403L37.7752 46.5588C32.8975 46.8485 26.746 43.1576 23.1827 37.8096C18.6228 30.9634 20.1646 24.3509 26.4096 23.9802L97.4594 19.7691C102.337 19.4795 108.489 23.1704 112.052 28.5184C116.612 35.3645 115.07 41.9771 108.825 42.3477L98.6898 42.9489C92.4447 43.3195 90.903 49.9352 95.4691 56.7844Z" fill="black"/>
<path d="M95.5073 56.7658L144.888 130.918C149.451 137.767 147.906 144.386 141.661 144.753L138.765 144.925C133.89 145.211 127.742 141.523 124.181 136.179L69.6115 54.2459C66.0514 48.9011 59.9029 45.2133 55.0284 45.4998L37.8165 46.5121C32.9388 46.7986 26.7872 43.1077 23.2271 37.7566C18.6703 30.9074 20.2152 24.2948 26.4602 23.9304L97.5132 19.7535C102.391 19.467 108.542 23.1579 112.103 28.509C116.659 35.3583 115.114 41.9708 108.869 42.3353L98.7341 42.9302C92.4891 43.2977 90.9442 49.9134 95.5073 56.7658Z" fill="black"/>
<path d="M95.5443 56.744L144.891 130.918C149.451 137.77 147.903 144.386 141.658 144.75L138.761 144.919C133.886 145.202 127.741 141.511 124.181 136.166L69.6485 54.2148C66.0915 48.8668 59.943 45.1759 55.0685 45.4624L37.8566 46.4654C32.9789 46.7488 26.8305 43.0548 23.2735 37.7037C18.7197 30.8544 20.2677 24.2419 26.5128 23.8774L97.5657 19.7317C102.443 19.4483 108.592 23.1424 112.149 28.4935C116.703 35.3427 115.155 41.9553 108.91 42.3197L98.7742 42.9115C92.5292 43.2759 90.9812 49.8916 95.5412 56.744H95.5443Z" fill="black"/>
<path d="M95.5782 56.7253L144.89 130.921C149.447 137.776 147.896 144.392 141.651 144.753L138.754 144.922C133.88 145.205 127.735 141.511 124.181 136.163L69.6855 54.1837C66.1285 48.8357 59.9863 45.1416 55.1117 45.4251L37.8998 46.4218C33.0221 46.7052 26.8737 43.008 23.3198 37.6538C18.7692 30.8015 20.3203 24.192 26.5653 23.8276L97.6214 19.7131C102.499 19.4296 108.648 23.1268 112.201 28.481C116.752 35.3334 115.201 41.9428 108.956 42.3072L98.8206 42.8928C92.5756 43.2541 91.0244 49.8698 95.5813 56.7253H95.5782Z" fill="black"/>
<path d="M95.6163 56.7066L144.897 130.924C149.451 137.78 147.897 144.395 141.652 144.753L138.755 144.919C133.881 145.199 127.738 141.502 124.185 136.154L69.7237 54.1525C66.1698 48.8014 60.0275 45.1074 55.153 45.3877L37.9411 46.3782C33.0634 46.6585 26.9181 42.9582 23.3642 37.604C18.8167 30.7485 20.3709 24.1391 26.6159 23.7809L97.672 19.6975C102.55 19.4172 108.695 23.1174 112.249 28.4716C116.796 35.3271 115.242 41.9366 108.997 42.2948L98.8619 42.8772C92.6168 43.2354 91.0626 49.8511 95.6163 56.7066Z" fill="black"/>
<path d="M95.6531 56.6848L144.9 130.924C149.451 137.783 147.893 144.395 141.648 144.753L138.751 144.919C133.877 145.196 127.735 141.499 124.184 136.147L69.7636 54.1214C66.2128 48.7703 60.0706 45.07 55.196 45.3503L37.9841 46.3314C33.1065 46.6087 26.9611 42.9053 23.4135 37.5511C18.8691 30.6956 20.4264 24.0861 26.6715 23.7279L97.7307 19.6757C102.608 19.3985 108.754 23.1019 112.301 28.4561C116.846 35.3116 115.288 41.921 109.043 42.2792L98.908 42.8585C92.663 43.2136 91.1056 49.8293 95.6562 56.6879L95.6531 56.6848Z" fill="black"/>
<path d="M95.6905 56.6661L144.906 130.927C149.454 137.786 147.893 144.402 141.648 144.753L138.751 144.919C133.877 145.196 127.738 141.492 124.187 136.138L69.801 54.0902C66.2533 48.736 60.1111 45.0357 55.2365 45.3098L38.0215 46.2847C33.1438 46.5619 27.0016 42.8554 23.4539 37.4981C18.9127 30.6395 20.4732 24.0301 26.7182 23.6781L97.7805 19.657C102.658 19.3798 108.8 23.0863 112.348 28.4436C116.889 35.3022 115.329 41.9117 109.084 42.2636L98.9485 42.8367C92.7035 43.1887 91.143 49.8044 95.6905 56.663V56.6661Z" fill="black"/>
<path d="M95.7254 56.6443L144.907 130.93C149.451 137.792 147.888 144.405 141.643 144.757L138.746 144.919C133.871 145.193 127.732 141.489 124.188 136.132L69.8389 54.0591C66.2944 48.7049 60.1553 45.0015 55.2807 45.2724L38.0657 46.238C33.188 46.5121 27.0458 42.8025 23.5013 37.4451C18.9631 30.5834 20.5267 23.9771 26.7717 23.6251L97.834 19.6383C102.712 19.3642 108.854 23.0738 112.398 28.4311C116.937 35.2929 115.373 41.8992 109.128 42.2512L98.9927 42.8211C92.7477 43.1731 91.1841 49.7857 95.7285 56.6474L95.7254 56.6443Z" fill="black"/>
<path d="M95.7626 56.6256L144.91 130.933C149.451 137.798 147.884 144.411 141.639 144.757L138.743 144.919C133.868 145.19 127.732 141.483 124.187 136.126L69.8761 54.0279C66.3316 48.6706 60.1956 44.9641 55.3211 45.2351L38.106 46.1944C33.2283 46.4654 27.0892 42.7557 23.5447 37.3953C19.0097 30.5336 20.5764 23.9241 26.8214 23.5784L97.8868 19.6227C102.764 19.3517 108.904 23.0614 112.448 28.4218C116.983 35.2835 115.416 41.893 109.171 42.2387L99.0361 42.8025C92.788 43.1513 91.2244 49.7639 95.7657 56.6256H95.7626Z" fill="black"/>
<path d="M95.7996 56.6038L144.916 130.933C149.454 137.798 147.884 144.411 141.639 144.757L138.742 144.915C133.868 145.183 127.732 141.474 124.19 136.116L69.9131 53.9937C66.3717 48.6363 60.2357 44.9267 55.3612 45.1946L38.1461 46.1446C33.2685 46.4124 27.1294 42.6997 23.591 37.3392C19.0591 30.4744 20.6289 23.8681 26.874 23.5224L97.9394 19.5978C102.817 19.3299 108.956 23.0427 112.494 28.4031C117.026 35.268 115.457 41.8743 109.212 42.22L99.0731 42.7807C92.825 43.1264 91.2583 49.7358 95.7964 56.6038H95.7996Z" fill="black"/>
<path d="M95.8344 56.5851L144.916 130.937C149.451 137.805 147.878 144.417 141.633 144.757L138.737 144.915C133.862 145.183 127.729 141.471 124.191 136.11L69.9511 53.9625C66.4128 48.6021 60.2799 44.8893 55.4054 45.1572L38.1903 46.1009C33.3127 46.3688 27.1767 42.653 23.6384 37.2863C19.1096 30.4183 20.6825 23.8151 26.9275 23.4725L97.9961 19.5791C102.874 19.3113 109.01 23.0271 112.548 28.3938C117.077 35.2617 115.504 41.8649 109.259 42.2076L99.1205 42.762C92.8723 43.1046 91.3025 49.714 95.8376 56.582L95.8344 56.5851Z" fill="black"/>
<path d="M95.8716 56.5664L144.919 130.94C149.451 137.811 147.878 144.42 141.63 144.76L138.733 144.919C133.859 145.183 127.726 141.467 124.191 136.107L69.9883 53.9314C66.4531 48.5709 60.3202 44.8551 55.4457 45.1198L38.2306 46.0542C33.353 46.319 27.217 42.6 23.6818 37.2334C19.1561 30.3654 20.7322 23.7591 26.9772 23.4196L98.0457 19.5573C102.923 19.2926 109.059 23.0115 112.595 28.3782C117.12 35.2462 115.544 41.8525 109.299 42.192L99.1608 42.7433C92.9126 43.0828 91.3397 49.6922 95.8716 56.5633V56.5664Z" fill="black"/>
<path d="M95.9088 56.5446L144.925 130.94C149.454 137.811 147.878 144.42 141.63 144.757L138.733 144.912C133.859 145.174 127.729 141.458 124.194 136.095L70.0255 53.9002C66.4903 48.5367 60.3605 44.8208 55.486 45.0824L38.271 46.0106C33.3933 46.2723 27.2604 42.5502 23.7252 37.1835C19.2026 30.3124 20.7818 23.7092 27.0268 23.3729L98.0985 19.5417C102.976 19.2801 109.109 23.0022 112.644 28.3689C117.167 35.2399 115.588 41.8431 109.343 42.1795L99.2042 42.7246C92.9561 43.061 91.38 49.6704 95.9088 56.5415V56.5446Z" fill="black"/>
<path d="M95.9459 56.5259L144.928 130.943C149.454 137.817 147.874 144.426 141.626 144.76L138.73 144.915C133.855 145.177 127.725 141.455 124.193 136.091L70.0625 53.8691C66.5304 48.5055 60.4038 44.7834 55.5261 45.0451L38.3111 45.9639C33.4334 46.2256 27.3006 42.5003 23.7716 37.1306C19.2521 30.2595 20.8344 23.6532 27.0794 23.3199L98.1542 19.5231C103.032 19.2614 109.165 22.9866 112.694 28.3564C117.213 35.2275 115.631 41.8338 109.386 42.1671L99.2475 42.709C92.9993 43.0423 91.4202 49.6517 95.9459 56.5259Z" fill="black"/>
<path d="M95.98 56.5041L144.931 130.943C149.454 137.82 147.871 144.426 141.623 144.76L138.726 144.912C133.852 145.171 127.725 141.449 124.196 136.082L70.0998 53.8379C66.5708 48.4713 60.4442 44.7492 55.5696 45.0077L38.3515 45.9203C33.4738 46.1788 27.3441 42.4505 23.8151 37.0807C19.2987 30.2065 20.881 23.6033 27.126 23.2732L98.2008 19.5075C103.078 19.249 109.208 22.9773 112.737 28.3471C117.254 35.2212 115.671 41.8244 109.426 42.1546L99.2878 42.6903C93.0397 43.0205 91.4574 49.6299 95.98 56.5072V56.5041Z" fill="black"/>
<path d="M96.0182 56.4854L144.935 130.946C149.454 137.823 147.869 144.433 141.621 144.76L138.724 144.912C133.85 145.168 127.723 141.443 124.197 136.076L70.138 53.8068C66.6121 48.4401 60.4855 44.7118 55.6109 44.9703L38.3928 45.8736C33.5151 46.129 27.3853 42.4007 23.8595 37.0278C19.3463 30.1505 20.9317 23.5473 27.1767 23.2202L98.2546 19.4857C103.132 19.2303 109.262 22.9586 112.788 28.3315C117.301 35.2088 115.716 41.812 109.471 42.139L99.3322 42.6717C93.0841 42.9987 91.4987 49.6081 96.0182 56.4854Z" fill="black"/>
<path d="M96.0554 56.4667L144.938 130.949C149.454 137.829 147.866 144.436 141.617 144.763L138.721 144.912C133.846 145.168 127.723 141.436 124.197 136.07L70.1752 53.7756C66.6493 48.4058 60.5258 44.6775 55.6513 44.9329L38.4331 45.83C33.5554 46.0854 27.4288 42.3508 23.9029 36.9779C19.3928 30.1006 20.9813 23.4974 27.2263 23.1704L98.3042 19.467C103.182 19.2116 109.309 22.9461 112.834 28.319C117.344 35.1963 115.756 41.7995 109.511 42.1266L99.3726 42.6561C93.1244 42.9831 91.5359 49.5894 96.0523 56.4699L96.0554 56.4667Z" fill="black"/>
<path d="M96.0891 56.4449L144.94 130.949C149.454 137.833 147.862 144.439 141.614 144.76L138.717 144.909C133.843 145.161 127.719 141.43 124.196 136.06L70.2151 53.7445C66.6924 48.3747 60.572 44.6433 55.6943 44.8956L38.4762 45.7864C33.5985 46.0387 27.4719 42.301 23.9522 36.9281C19.4452 30.0477 21.0368 23.4476 27.2819 23.1237L98.3629 19.4514C103.241 19.1991 109.367 22.9368 112.887 28.3097C117.394 35.1901 115.802 41.7902 109.557 42.1141L99.4187 42.6374C93.1706 42.9613 91.579 49.5676 96.0922 56.448L96.0891 56.4449Z" fill="black"/>
<path d="M96.1271 56.4263L144.944 130.952C149.454 137.836 147.859 144.442 141.611 144.763L138.715 144.912C133.84 145.161 127.72 141.427 124.2 136.054L70.2531 53.7102C66.7335 48.3373 60.6131 44.6028 55.7385 44.852L38.5204 45.7334C33.6427 45.9826 27.5161 42.2449 23.9996 36.8689C19.4957 29.9854 21.0904 23.3853 27.3354 23.0645L98.4195 19.4234C103.297 19.1742 109.424 22.9119 112.94 28.2879C117.444 35.1714 115.85 41.7715 109.605 42.0923L99.4661 42.6125C93.218 42.9333 91.6232 49.5365 96.1333 56.4231L96.1271 56.4263Z" fill="black"/>
<path d="M96.1643 56.4045L144.947 130.952C149.454 137.839 147.856 144.442 141.608 144.76L138.711 144.906C133.834 145.152 127.716 141.418 124.2 136.042L70.2903 53.6791C66.7738 48.3062 60.6534 44.5685 55.7789 44.8146L38.5607 45.6898C33.6831 45.939 27.5595 42.1951 24.043 36.8191C19.5422 29.9356 21.1401 23.3355 27.3851 23.0178L98.4692 19.4109C103.347 19.1618 109.47 22.9057 112.987 28.2817C117.488 35.1652 115.89 41.7653 109.645 42.083L99.5064 42.5969C93.2583 42.9146 91.6604 49.5178 96.1674 56.4045H96.1643Z" fill="black"/>
<path d="M96.2015 56.3858L144.953 130.955C149.457 137.845 147.856 144.448 141.608 144.763L138.711 144.909C133.834 145.155 127.719 141.414 124.203 136.038L70.3276 53.6479C66.811 48.2719 60.6969 44.5342 55.8192 44.7772L38.601 45.6431C33.7234 45.8892 27.5998 42.1453 24.0864 36.7661C19.5888 29.8795 21.1898 23.2794 27.4348 22.9648L98.522 19.3891C103.4 19.1431 109.523 22.887 113.037 28.2661C117.534 35.1527 115.933 41.7528 109.688 42.0674L99.5499 42.5782C93.3017 42.8928 91.7008 49.496 96.2046 56.3858H96.2015Z" fill="black"/>
<path d="M96.2356 56.3671L144.953 130.958C149.454 137.848 147.85 144.451 141.602 144.763L138.705 144.906C133.827 145.149 127.713 141.408 124.2 136.029L70.3648 53.6168C66.8514 48.2408 60.7372 44.4969 55.8595 44.7398L38.6382 45.5995C33.7606 45.8424 27.6402 42.0954 24.1299 36.7163C19.6353 29.8266 21.2394 23.2296 27.4844 22.9181L98.5717 19.3736C103.449 19.1306 109.57 22.8776 113.08 28.2567C117.575 35.1465 115.97 41.7435 109.725 42.0549L99.584 42.5595C93.3358 42.871 91.7317 49.4742 96.2325 56.364L96.2356 56.3671Z" fill="black"/>
<path d="M96.2727 56.3453L144.959 130.958C149.456 137.851 147.849 144.454 141.601 144.763L138.704 144.906C133.827 145.146 127.716 141.402 124.205 136.023L70.4018 53.5856C66.8915 48.2065 60.7773 44.4626 55.9028 44.7025L38.6815 45.5528C33.8007 45.7926 27.6834 42.0456 24.1763 36.6602C19.6848 29.7705 21.292 23.1704 27.537 22.862L98.6274 19.3486C103.508 19.1088 109.625 22.8558 113.133 28.2412C117.624 35.1309 116.017 41.731 109.772 42.0394L99.6303 42.5408C93.3822 42.8492 91.775 49.4524 96.2727 56.3453Z" fill="black"/>
<path d="M96.3109 56.3266L144.963 130.961C149.457 137.857 147.847 144.458 141.599 144.763L138.702 144.906C133.825 145.146 127.713 141.396 124.206 136.017L70.44 53.5545C66.9328 48.1754 60.8186 44.4252 55.9441 44.6651L38.7228 45.5092C33.8421 45.749 27.7279 41.9958 24.2207 36.6104C19.7324 29.7175 21.3427 23.1206 27.5877 22.8153L98.6812 19.3331C103.562 19.0932 109.676 22.8465 113.183 28.2318C117.672 35.1247 116.061 41.7217 109.816 42.0269L99.6748 42.5221C93.4266 42.8274 91.8163 49.4306 96.3109 56.3235V56.3266Z" fill="black"/>
<path d="M96.3481 56.3048L144.966 130.961C149.457 137.857 147.844 144.461 141.596 144.763L138.699 144.903C133.821 145.14 127.713 141.39 124.206 136.007L70.4772 53.5233C66.9732 48.1411 60.8621 44.391 55.9844 44.6277L38.7631 45.4624C33.8824 45.6992 27.7682 41.9428 24.2641 36.5575C19.7789 29.6615 21.3924 23.0676 27.6374 22.7624L98.7308 19.3113C103.612 19.0745 109.726 22.8309 113.23 28.2162C117.715 35.1122 116.102 41.7061 109.857 42.0113L99.7151 42.5035C93.467 42.8056 91.8535 49.4088 96.345 56.3048H96.3481Z" fill="black"/>
<path d="M96.382 56.2861L144.969 130.968C149.457 137.867 147.843 144.467 141.592 144.766L138.695 144.906C133.818 145.14 127.71 141.386 124.206 136.004L70.5143 53.4922C67.0102 48.11 60.9022 44.3567 56.0246 44.5903L38.8033 45.4188C33.9225 45.6524 27.8115 41.8961 24.3105 36.5076C19.8284 29.6116 21.445 23.0147 27.69 22.7156L98.7866 19.2988C103.667 19.0652 109.778 22.8215 113.279 28.21C117.761 35.106 116.145 41.703 109.9 42.002L99.7584 42.491C93.5102 42.79 91.8937 49.3932 96.382 56.2892V56.2861Z" fill="black"/>
<path d="M96.42 56.2643L144.972 130.968C149.457 137.87 147.841 144.467 141.59 144.766L138.693 144.903C133.815 145.137 127.707 141.38 124.21 135.995L70.5523 53.4579C67.0513 48.0726 60.9434 44.3162 56.0688 44.5498L38.8476 45.369C33.9668 45.6026 27.8557 41.84 24.3579 36.4516C19.8789 29.5525 21.4986 22.9586 27.7436 22.6596L98.8402 19.2739C103.721 19.0403 109.832 22.8029 113.33 28.1913C117.809 35.0904 116.189 41.6843 109.944 41.9833L99.8026 42.4661C93.5545 42.7651 91.9348 49.3621 96.42 56.2643Z" fill="black"/>
<path d="M96.4571 56.2456L144.978 130.971C149.46 137.873 147.841 144.473 141.589 144.769L138.693 144.906C133.815 145.137 127.71 141.377 124.212 135.992L70.5894 53.4268C67.0915 48.0414 60.9867 44.282 56.109 44.5125L38.8878 45.3254C34.007 45.5559 27.899 41.7933 24.4012 36.4017C19.9254 29.4995 21.545 22.9056 27.7931 22.6129L98.8928 19.2583C103.774 19.0278 109.882 22.7904 113.379 28.182C117.855 35.0842 116.236 41.6781 109.987 41.9708L99.8459 42.4505C93.5947 42.7464 91.975 49.3434 96.4571 56.2487V56.2456Z" fill="black"/>
<path d="M96.4914 56.2269L144.978 130.974C149.457 137.879 147.834 144.476 141.583 144.769L138.687 144.903C133.809 145.13 127.704 141.368 124.209 135.982L70.6268 53.3956C67.1321 48.0072 61.0272 44.2446 56.1496 44.4751L38.9252 45.2787C34.0444 45.506 27.9364 41.7403 24.4417 36.3488C19.969 29.4465 21.5918 22.8527 27.8399 22.5599L98.9396 19.2365C103.82 19.0091 109.928 22.7748 113.423 28.1664C117.896 35.0686 116.273 41.6625 110.025 41.9553L99.8833 42.4287C93.6321 42.7215 92.0093 49.3185 96.4883 56.2238L96.4914 56.2269Z" fill="black"/>
<path d="M96.5283 56.2051L144.981 130.974C149.457 137.879 147.831 144.479 141.58 144.769L138.683 144.903C133.805 145.127 127.703 141.365 124.209 135.973L70.6668 53.3645C67.172 47.976 61.0703 44.2103 56.1927 44.4346L38.9683 45.2319C34.0875 45.4593 27.9827 41.6905 24.4911 36.2958C20.0214 29.3905 21.6473 22.7966 27.8954 22.5101L98.9982 19.2178C103.879 18.9904 109.984 22.7592 113.475 28.1539C117.945 35.0593 116.319 41.6531 110.071 41.9397L99.9295 42.41C93.6783 42.6997 92.0524 49.2967 96.5283 56.2051Z" fill="black"/>
<path d="M96.5663 56.1864L144.988 130.977C149.46 137.886 147.831 144.482 141.58 144.769L138.684 144.903C133.806 145.127 127.704 141.358 124.216 135.967L70.7048 53.3333C67.2132 47.9418 61.1146 44.1761 56.2369 44.3972L39.0125 45.1883C34.1318 45.4126 28.0269 41.6407 24.5384 36.246C20.0719 29.3375 21.7009 22.7468 27.949 22.4602L99.055 19.1991C103.936 18.9749 110.041 22.7468 113.529 28.1415C117.996 35.0499 116.367 41.6407 110.118 41.9272L99.9769 42.3913C93.7257 42.6779 92.0967 49.2749 96.5694 56.1833L96.5663 56.1864Z" fill="black"/>
<path d="M96.6035 56.1646L144.991 130.977C149.46 137.889 147.828 144.486 141.577 144.769L138.68 144.9C133.803 145.121 127.704 141.352 124.216 135.957L70.742 53.3022C67.2535 47.9106 61.1549 44.1387 56.2773 44.3598L39.0529 45.1416C34.1721 45.3628 28.0704 41.5877 24.5819 36.193C20.1185 29.2846 21.7506 22.6938 27.9987 22.4073L99.1046 19.1804C103.985 18.9593 110.087 22.7343 113.576 28.129C118.039 35.0375 116.407 41.6282 110.159 41.9148L100.017 42.3757C93.766 42.6592 92.1339 49.2562 96.6035 56.1677V56.1646Z" fill="black"/>
<path d="M96.6377 56.1459L144.991 130.98C149.457 137.892 147.822 144.489 141.571 144.769L138.674 144.9C133.796 145.118 127.698 141.346 124.212 135.951L70.7793 53.271C67.2939 47.8763 61.1953 44.1044 56.3176 44.3225L39.0932 45.098C34.2124 45.316 28.1107 41.541 24.6253 36.1432C20.1651 29.2316 21.8003 22.6409 28.0484 22.3606L99.1575 19.1649C104.038 18.9468 110.14 22.7219 113.625 28.1197C118.086 35.0312 116.45 41.622 110.202 41.9023L100.061 42.3571C93.8095 42.6374 92.1743 49.2344 96.6408 56.1459H96.6377Z" fill="black"/>
<path d="M96.6747 56.1272L144.996 130.983C149.46 137.898 147.822 144.492 141.57 144.772L138.674 144.9C133.796 145.118 127.7 141.343 124.215 135.945L70.8163 53.2399C67.3309 47.8452 61.2354 44.067 56.3578 44.2851L39.1334 45.0513C34.2526 45.2693 28.154 41.4881 24.6717 36.0902C20.2146 29.1756 21.8529 22.5879 28.101 22.3076L99.2101 19.1431C104.091 18.925 110.189 22.7063 113.672 28.1041C118.129 35.0188 116.491 41.6064 110.242 41.8867L100.098 42.3384C93.8465 42.6156 92.2082 49.2126 96.6716 56.1272H96.6747Z" fill="black"/>
<path d="M96.7121 56.1054L145 130.983C149.46 137.901 147.818 144.495 141.567 144.769L138.671 144.897C133.793 145.112 127.697 141.333 124.218 135.936L70.8537 53.2087C67.3715 47.8109 61.2791 44.0328 56.4014 44.2477L39.177 45.0077C34.2963 45.2226 28.1977 41.4413 24.7185 36.0373C20.2614 29.1226 21.9059 22.5319 28.1541 22.2578L99.2662 19.1244C104.147 18.9095 110.246 22.6907 113.725 28.0948C118.182 35.0094 116.537 41.6002 110.289 41.8743L100.145 42.3197C93.8933 42.5938 92.2519 49.1908 96.7121 56.1054Z" fill="black"/>
<path d="M96.7464 56.0867L145.003 130.986C149.46 137.904 147.815 144.498 141.564 144.772L138.667 144.9C133.79 145.112 127.697 141.33 124.218 135.933L70.8912 53.1745C67.412 47.7767 61.3196 43.9954 56.442 44.2072L39.2145 44.9579C34.3337 45.1697 28.2382 41.3853 24.7591 35.9812C20.305 29.0634 21.9527 22.4758 28.2008 22.2017L99.3161 19.0995C104.197 18.8877 110.292 22.672 113.771 28.0761C118.226 34.9939 116.578 41.5815 110.33 41.8556L100.185 42.2979C93.9339 42.572 92.2893 49.1627 96.7464 56.0836V56.0867Z" fill="black"/>
<path d="M96.7837 56.0649L145.006 130.986C149.46 137.907 147.812 144.501 141.561 144.769L138.664 144.894C133.787 145.105 127.694 141.321 124.218 135.92L70.9284 53.1433C67.4524 47.7424 61.36 43.958 56.4823 44.1698L39.2548 44.9142C34.3741 45.126 28.2786 41.3386 24.8025 35.9314C20.3516 29.0136 22.0024 22.4229 28.2505 22.155L99.3658 19.087C104.247 18.8752 110.342 22.6627 113.818 28.0698C118.269 34.9876 116.618 41.5784 110.37 41.8463L100.225 42.2854C93.9742 42.5564 92.3265 49.1472 96.7806 56.0681L96.7837 56.0649Z" fill="black"/>
<path d="M96.8217 56.0462L145.01 130.989C149.46 137.914 147.81 144.504 141.558 144.772L138.662 144.897C133.784 145.105 127.695 141.318 124.219 135.917L70.9664 53.1122C67.4904 47.7113 61.4043 43.9238 56.5235 44.1324L39.296 44.8675C34.4152 45.0762 28.3228 41.2856 24.8499 35.8784C20.4021 28.9575 22.056 22.3699 28.3041 22.102L99.4225 19.0652C104.303 18.8565 110.396 22.6471 113.869 28.0543C118.316 34.9752 116.662 41.5628 110.414 41.8307L100.27 42.2636C94.0185 42.5315 92.3677 49.1222 96.8186 56.0462H96.8217Z" fill="black"/>
<path d="M96.8588 56.0276L145.015 130.993C149.463 137.917 147.809 144.511 141.558 144.772L138.661 144.894C133.784 145.099 127.694 141.312 124.225 135.908L71.0035 53.081C67.5306 47.677 61.4444 43.8895 56.5668 44.0951L39.3393 44.8239C34.4585 45.0295 28.3661 41.2358 24.8963 35.8286C20.4516 28.9046 22.1086 22.3201 28.3568 22.0553L99.4751 19.0496C104.356 18.8441 110.448 22.6378 113.918 28.0449C118.363 34.969 116.706 41.5535 110.458 41.8182L100.313 42.2481C94.0618 42.5128 92.4078 49.1036 96.8557 56.0276H96.8588Z" fill="black"/>
<path d="M96.8929 56.0058L145.015 130.993C149.46 137.92 147.806 144.51 141.552 144.772L138.652 144.894C133.774 145.099 127.688 141.305 124.218 135.901L71.0408 53.0499C67.571 47.6459 61.4848 43.8521 56.6071 44.0577L39.3796 44.7772C34.4989 44.9828 28.4096 41.1859 24.9398 35.7757C20.4982 28.8516 22.1584 22.264 28.4065 22.0024L99.528 19.0278C104.409 18.8222 110.498 22.6191 113.968 28.0293C118.409 34.9534 116.749 41.541 110.501 41.8026L100.356 42.2262C94.1053 42.4879 92.4482 49.0786 96.8929 56.0058Z" fill="black"/>
<path d="M96.93 55.9871L145.018 130.996C149.46 137.926 147.803 144.514 141.548 144.772L138.649 144.894C133.771 145.096 127.685 141.302 124.218 135.895L71.0809 53.0187C67.6142 47.6116 61.5281 43.8179 56.6504 44.0203L39.4229 44.7336C34.5422 44.936 28.4529 41.1361 24.9862 35.7258C20.5477 28.7987 22.211 22.2142 28.4591 21.9556L99.5806 19.0122C104.461 18.8098 110.551 22.6097 114.017 28.02C118.456 34.9471 116.793 41.5317 110.544 41.7902L100.4 42.2107C94.1485 42.4692 92.4884 49.0599 96.93 55.9871Z" fill="black"/>
<path d="M96.9679 55.9653L145.025 130.996C149.463 137.926 147.803 144.517 141.549 144.772L138.649 144.891C133.771 145.09 127.688 141.293 124.222 135.883L71.1188 52.9876C67.6553 47.5773 61.5722 43.7805 56.6915 43.9798L39.4639 44.6838C34.5832 44.8831 28.497 41.0831 25.0335 35.6698C20.5981 28.7395 22.2614 22.155 28.5126 21.8996L99.6372 18.9873C104.518 18.788 110.604 22.5879 114.068 28.0013C118.503 34.9316 116.84 41.5161 110.589 41.7715L100.444 42.1858C94.1927 42.4412 92.5294 49.0319 96.9679 55.9622V55.9653Z" fill="black"/>
<path d="M97.0051 55.9466L145.028 130.999C149.463 137.932 147.8 144.52 141.546 144.775L138.646 144.894C133.768 145.09 127.685 141.29 124.225 135.88L71.1561 52.9565C67.6925 47.5462 61.6126 43.7462 56.7349 43.9425L39.5043 44.6402C34.6236 44.8364 28.5374 41.0333 25.0769 35.6199C20.6447 28.6897 22.3111 22.1052 28.5623 21.8529L99.69 18.9749C104.571 18.7786 110.657 22.5817 114.117 27.9951C118.55 34.9253 116.883 41.5099 110.632 41.7621L100.487 42.1733C94.2362 42.4256 92.5698 49.0163 97.0051 55.9497V55.9466Z" fill="black"/>
<path d="M97.0393 55.9248L145.031 131.002C149.463 137.938 147.797 144.526 141.546 144.775L138.646 144.891C133.768 145.087 127.688 141.284 124.228 135.87L71.1934 52.9222C67.7329 47.5088 61.653 43.7089 56.7753 43.902L39.5447 44.5903C34.6639 44.7865 28.5809 40.9772 25.1204 35.5639C20.6913 28.6305 22.3608 22.046 28.612 21.7968L99.7397 18.9499C104.621 18.7537 110.704 22.563 114.164 27.9764C118.593 34.9098 116.924 41.4943 110.672 41.7435L100.528 42.1484C94.2765 42.3976 92.607 48.9852 97.0424 55.9217L97.0393 55.9248Z" fill="black"/>
<path d="M97.0765 55.9061L145.034 131.005C149.463 137.942 147.794 144.529 141.542 144.778L138.642 144.894C133.762 145.087 127.685 141.281 124.228 135.867L71.2306 52.891C67.7733 47.4777 61.6965 43.6715 56.8157 43.8646L39.5851 44.5467C34.7043 44.7398 28.6213 40.9305 25.1639 35.514C20.7379 28.5775 22.4105 21.9961 28.6617 21.747L99.7926 18.9313C104.673 18.7381 110.756 22.5475 114.214 27.9639C118.64 34.9004 116.967 41.4818 110.716 41.731L100.571 42.1328C94.32 42.3789 92.6474 48.9665 97.0797 55.9061H97.0765Z" fill="black"/>
<path d="M97.1146 55.8874L145.038 131.008C149.464 137.948 147.791 144.535 141.54 144.778L138.64 144.89C133.759 145.08 127.686 141.274 124.228 135.858L71.2687 52.8599C67.8144 47.4434 61.7376 43.6372 56.8569 43.8272L39.6262 44.5031C34.7455 44.6931 28.6655 40.8807 25.2113 35.4611C20.7884 28.5246 22.4641 21.9432 28.7154 21.6971L99.8462 18.9126C104.727 18.7226 110.807 22.535 114.261 27.9546C118.684 34.8911 117.008 41.4725 110.757 41.7185L100.609 42.1172C94.3581 42.3633 92.6823 48.9478 97.1115 55.8874H97.1146Z" fill="black"/>
<path d="M97.1486 55.8656L145.04 131.008C149.463 137.951 147.788 144.535 141.536 144.778L138.637 144.89C133.756 145.08 127.682 141.268 124.231 135.852L71.3057 52.8287C67.8515 47.4122 61.7778 43.5998 56.9002 43.7898L39.6695 44.4564C34.7888 44.6464 28.7088 40.8308 25.2577 35.4081C20.8379 28.4685 22.5168 21.8871 28.768 21.6442L99.902 18.8908C104.783 18.7008 110.863 22.5163 114.314 27.939C118.734 34.8786 117.055 41.46 110.803 41.703L100.656 42.0954C94.4045 42.3384 92.7257 48.9229 97.1517 55.8656H97.1486Z" fill="black"/>
<path d="M97.1858 55.8469L145.043 131.011C149.463 137.954 147.784 144.539 141.533 144.778L138.633 144.891C133.753 145.077 127.682 141.265 124.231 135.845L71.343 52.7976C67.8919 47.378 61.8213 43.5656 56.9405 43.7525L39.7099 44.4128C34.826 44.5997 28.7523 40.781 25.3012 35.3583C20.8845 28.4156 22.5665 21.8373 28.8177 21.5975L99.9548 18.8752C104.839 18.6883 110.912 22.507 114.364 27.9297C118.78 34.8724 117.098 41.4507 110.847 41.6905L100.699 42.0799C94.4449 42.3197 92.766 48.9042 97.1889 55.8469H97.1858Z" fill="black"/>
<path d="M97.2231 55.8251L145.05 131.011C149.466 137.957 147.784 144.542 141.533 144.778L138.633 144.887C133.753 145.071 127.682 141.256 124.234 135.836L71.3803 52.7664C67.9323 47.3468 61.8617 43.5313 56.9809 43.7151L39.7503 44.366C34.8664 44.5498 28.7927 40.7312 25.3447 35.3053C20.9312 28.3626 22.6162 21.7812 28.8675 21.5445L100.005 18.8565C104.888 18.6727 110.962 22.4914 114.41 27.9172C118.824 34.8599 117.139 41.4413 110.887 41.678L100.74 42.0612C94.4852 42.2979 92.8033 48.8824 97.2231 55.8282V55.8251Z" fill="black"/>
<path d="M97.2604 55.8064L145.053 131.014C149.466 137.963 147.781 144.545 141.53 144.778L138.63 144.887C133.749 145.071 127.682 141.249 124.234 135.83L71.4175 52.7353C67.9726 47.3126 61.9021 43.4939 57.0213 43.6777L39.7876 44.3225C34.9037 44.5062 28.8331 40.6814 25.3882 35.2555C20.9778 28.3097 22.6659 21.7314 28.9172 21.4978L100.057 18.8409C104.941 18.6572 111.012 22.482 114.457 27.9079C118.867 34.8537 117.179 41.432 110.928 41.6656L100.78 42.0456C94.5256 42.2792 92.8406 48.8637 97.2572 55.8095L97.2604 55.8064Z" fill="black"/>
<path d="M97.2943 55.7877L145.052 131.018C149.463 137.966 147.775 144.551 141.523 144.781L138.624 144.887C133.743 145.068 127.675 141.246 124.234 135.824L71.4546 52.7042C68.0097 47.2814 61.9423 43.4597 57.0646 43.6403L39.8309 44.2757C34.947 44.4564 28.8764 40.6284 25.4346 35.2026C21.0273 28.2536 22.7186 21.6753 28.9698 21.4448L100.11 18.8191C104.994 18.6385 111.064 22.4665 114.506 27.8923C118.914 34.8413 117.222 41.4195 110.971 41.65L100.823 42.0238C94.5689 42.2543 92.8808 48.8388 97.2943 55.7877Z" fill="black"/>
<path d="M97.3326 55.7659L145.059 131.018C149.467 137.97 147.775 144.551 141.524 144.778L138.624 144.884C133.744 145.062 127.679 141.237 124.238 135.814L71.4929 52.673C68.0511 47.2472 61.9867 43.4223 57.106 43.6029L39.8722 44.2321C34.9884 44.4097 28.9209 40.5817 25.4791 35.1527C21.0749 28.2038 22.7693 21.6255 29.0205 21.3981L100.164 18.8036C105.048 18.626 111.115 22.454 114.557 27.883C118.961 34.8319 117.267 41.4102 111.016 41.6376L100.868 42.0082C94.6134 42.2356 92.9221 48.8201 97.3326 55.769V55.7659Z" fill="black"/>
<path d="M97.3697 55.7472L145.062 131.021C149.466 137.973 147.772 144.557 141.521 144.781L138.621 144.887C133.74 145.062 127.676 141.237 124.237 135.811L71.5331 52.6388C68.0944 47.2129 62.0301 43.3849 57.1493 43.5625L39.9155 44.1823C35.0317 44.3567 28.9642 40.5256 25.5255 35.0967C21.1244 28.1446 22.822 21.5694 29.0732 21.3421L100.22 18.7786C105.104 18.6042 111.171 22.4353 114.61 27.8643C119.011 34.8163 117.313 41.3915 111.062 41.6189L100.914 41.9833C94.6599 42.2076 92.9654 48.789 97.3728 55.7441L97.3697 55.7472Z" fill="black"/>
<path d="M97.4036 55.7254L145.062 131.021C149.463 137.976 147.769 144.557 141.514 144.778L138.614 144.881C133.734 145.056 127.672 141.224 124.234 135.796L71.5702 52.6076C68.1346 47.1786 62.0703 43.3507 57.1895 43.522L39.9558 44.1356C35.0719 44.31 29.0075 40.4758 25.572 35.0437C21.174 28.0885 22.8746 21.5134 29.1259 21.2922L100.272 18.7599C105.156 18.5855 111.221 22.4197 114.656 27.8518C119.054 34.807 117.353 41.3822 111.102 41.6033L100.954 41.9646C94.7001 42.1857 93.0025 48.7671 97.4068 55.7223L97.4036 55.7254Z" fill="black"/>
<path d="M97.4407 55.7068L145.068 131.024C149.469 137.982 147.768 144.56 141.514 144.781L138.614 144.884C133.733 145.056 127.672 141.221 124.24 135.792L71.6072 52.5765C68.1748 47.1475 62.1136 43.3133 57.2328 43.4846L39.9991 44.0889C35.1152 44.2602 29.0508 40.4228 25.6184 34.9908C21.2235 28.0356 22.9273 21.4604 29.1785 21.2393L100.328 18.7413C105.212 18.57 111.276 22.4073 114.709 27.8394C119.104 34.7945 117.4 41.3697 111.149 41.5908L101.001 41.9459C94.7465 42.1671 93.0458 48.7454 97.4469 55.7036L97.4407 55.7068Z" fill="black"/>
<path d="M106.234 45.6836L157.2 118.783C161.909 125.536 160.505 132.186 154.269 132.687L151.379 132.921C146.51 133.31 140.284 129.756 136.609 124.486L80.2851 43.7213C76.6097 38.4512 70.3834 34.8942 65.5151 35.2867L48.3249 36.6665C43.4535 37.0589 37.2241 33.4957 33.5487 28.2225C28.8455 21.4729 30.2502 14.8261 36.4859 14.3246L107.449 8.62777C112.32 8.23532 118.549 11.7986 122.225 17.0718C126.928 23.8214 125.523 30.4682 119.288 30.9697L109.165 31.7826C102.926 32.2841 101.524 38.934 106.234 45.6867V45.6836Z" fill="#FFCA38"/>
</svg>
